<svg width="1440" height="1227" viewBox="0 0 1440 1227" fill="none" xmlns="http://www.w3.org/2000/svg">
<g opacity="0.2">
<mask id="mask0_157_26" style="mask-type:luminance" maskUnits="userSpaceOnUse" x="7" y="25" width="1425" height="1177">
<path d="M1431.04 25.4499H7.95312V1201.55H1431.04V25.4499Z" fill="white"/>
</mask>
<g mask="url(#mask0_157_26)">
<g style="mix-blend-mode:screen">
<path d="M991.043 409.817L447.901 409.773L-112 0H1551L1549.39 1.18082L991.043 409.817ZM448.084 408.592H990.916L1547.53 1.22482H-108.526L448.084 408.592Z" fill="url(#paint0_linear_157_26)"/>
<path d="M1008.67 395.647H430.334V396.872H1008.67V395.647Z" fill="url(#paint1_linear_157_26)"/>
<path d="M1028.82 380.898H410.183V382.123H1028.82V380.898Z" fill="url(#paint2_linear_157_26)"/>
<path d="M1051.99 363.941H387.012V365.166H1051.99V363.941Z" fill="url(#paint3_linear_157_26)"/>
<path d="M1078.92 344.233H360.084V345.458H1078.92V344.233Z" fill="url(#paint4_linear_157_26)"/>
<path d="M1110.59 321.057H328.415V322.282H1110.59V321.057Z" fill="url(#paint5_linear_157_26)"/>
<path d="M1148.38 293.4H290.625V294.625H1148.38V293.4Z" fill="url(#paint6_linear_157_26)"/>
<path d="M1194.24 259.831H244.751V261.056H1194.24V259.831Z" fill="url(#paint7_linear_157_26)"/>
<path d="M1251.11 218.209H187.888V219.433H1251.11V218.209Z" fill="url(#paint8_linear_157_26)"/>
<path d="M1323.45 165.27H115.553V166.495H1323.45V165.27Z" fill="url(#paint9_linear_157_26)"/>
<path d="M1418.57 95.6461H20.4282V96.8709H1418.57V95.6461Z" fill="url(#paint10_linear_157_26)"/>
<path d="M957.177 409.765L956.908 408.643L1445.41 0.0513649L1445.68 1.17351L957.177 409.765Z" fill="url(#paint11_linear_157_26)"/>
<path d="M923.262 409.751L922.958 408.665L1341.67 0.0660095L1341.98 1.15148L923.262 409.751Z" fill="url(#paint12_linear_157_26)"/>
<path d="M889.351 409.721L889.001 408.687L1237.93 0.0953445L1238.28 1.12948L889.351 409.721Z" fill="url(#paint13_linear_157_26)"/>
<path d="M855.444 409.685L855.033 408.724L1134.17 0.13208L1134.59 1.09287L855.444 409.685Z" fill="url(#paint14_linear_157_26)"/>
<path d="M821.544 409.626L821.067 408.782L1030.43 0.190674L1030.9 1.03411L821.544 409.626Z" fill="url(#paint15_linear_157_26)"/>
<path d="M787.649 409.531L787.091 408.878L926.664 0.286194L927.217 0.938943L787.649 409.531Z" fill="url(#paint16_linear_157_26)"/>
<path d="M753.749 409.391L753.12 409.017L822.909 0.425598L823.538 0.799646L753.749 409.391Z" fill="url(#paint17_linear_157_26)"/>
<path d="M719.831 0.608643H719.172V409.2H719.831V0.608643Z" fill="url(#paint18_linear_157_26)"/>
<path d="M685.252 409.391L615.462 0.799649L616.091 0.425602L685.88 409.017L685.252 409.391Z" fill="url(#paint19_linear_157_26)"/>
<path d="M651.351 409.531L511.783 0.938836L512.335 0.286087L651.909 408.878L651.351 409.531Z" fill="url(#paint20_linear_157_26)"/>
<path d="M617.456 409.626L408.098 1.03423L408.575 0.190788L617.933 408.783L617.456 409.626Z" fill="url(#paint21_linear_157_26)"/>
<path d="M583.555 409.685L304.413 1.0928L304.824 0.132015L583.966 408.724L583.555 409.685Z" fill="url(#paint22_linear_157_26)"/>
<path d="M549.649 409.721L200.723 1.12949L201.073 0.0953636L549.999 408.687L549.649 409.721Z" fill="url(#paint23_linear_157_26)"/>
<path d="M515.738 409.751L97.0229 1.15148L97.3323 0.0660095L516.043 408.665L515.738 409.751Z" fill="url(#paint24_linear_157_26)"/>
<path d="M481.822 409.765L-6.67725 1.17348L-6.40848 0.0513382L482.091 408.643L481.822 409.765Z" fill="url(#paint25_linear_157_26)"/>
</g>
<g style="mix-blend-mode:screen">
<path d="M1534.27 1216.41L1533.81 1216.08L990.647 818.21V408.782L990.855 408.628L1534.27 10.5907V1216.41ZM991.307 817.382L1533.61 1214.61V12.3949L991.307 409.626V817.389V817.382Z" fill="url(#paint26_linear_157_26)"/>
<path d="M1533.84 1106.64L990.881 781.239L991.079 780.072L1534.04 1105.47L1533.84 1106.64Z" fill="url(#paint27_linear_157_26)"/>
<path d="M1533.86 997.196L990.901 744.105L991.058 742.917L1534.02 996.008L1533.86 997.196Z" fill="url(#paint28_linear_157_26)"/>
<path d="M1533.88 887.746L990.921 706.964L991.038 705.761L1534 886.543L1533.88 887.746Z" fill="url(#paint29_linear_157_26)"/>
<path d="M1533.91 778.297L990.942 669.824L991.013 668.613L1533.97 777.08L1533.91 778.297Z" fill="url(#paint30_linear_157_26)"/>
<path d="M1533.93 668.841L990.967 632.683L990.993 631.465L1533.95 667.616L1533.93 668.841Z" fill="url(#paint31_linear_157_26)"/>
<path d="M990.993 595.542L990.967 594.317L1533.93 558.159L1533.95 559.384L990.993 595.542Z" fill="url(#paint32_linear_157_26)"/>
<path d="M991.013 558.394L990.942 557.176L1533.91 448.71L1533.97 449.928L991.013 558.394Z" fill="url(#paint33_linear_157_26)"/>
<path d="M991.038 521.246L990.921 520.036L1533.88 339.261L1534 340.464L991.038 521.246Z" fill="url(#paint34_linear_157_26)"/>
<path d="M991.058 484.091L990.901 482.902L1533.86 229.812L1534.02 231L991.058 484.091Z" fill="url(#paint35_linear_157_26)"/>
<path d="M991.079 446.935L990.881 445.769L1533.84 120.37L1534.04 121.529L991.079 446.935Z" fill="url(#paint36_linear_157_26)"/>
<path d="M1373.42 129.318H1372.76V1097.69H1373.42V129.318Z" fill="url(#paint37_linear_157_26)"/>
<path d="M1314.5 172.472H1313.84V1054.53H1314.5V172.472Z" fill="url(#paint38_linear_157_26)"/>
<path d="M1265.22 208.572H1264.56V1018.44H1265.22V208.572Z" fill="url(#paint39_linear_157_26)"/>
<path d="M1223.4 239.2H1222.74V987.8H1223.4V239.2Z" fill="url(#paint40_linear_157_26)"/>
<path d="M1187.46 265.53H1186.8V961.485H1187.46V265.53Z" fill="url(#paint41_linear_157_26)"/>
<path d="M1156.25 288.39H1155.59V938.617H1156.25V288.39Z" fill="url(#paint42_linear_157_26)"/>
<path d="M1128.88 308.435H1128.22V918.565H1128.88V308.435Z" fill="url(#paint43_linear_157_26)"/>
<path d="M1104.69 326.155H1104.03V900.853H1104.69V326.155Z" fill="url(#paint44_linear_157_26)"/>
<path d="M1083.16 341.923H1082.5V885.077H1083.16V341.923Z" fill="url(#paint45_linear_157_26)"/>
<path d="M1063.87 356.056H1063.21V870.951H1063.87V356.056Z" fill="url(#paint46_linear_157_26)"/>
<path d="M1046.49 368.789H1045.83V858.219H1046.49V368.789Z" fill="url(#paint47_linear_157_26)"/>
<path d="M1030.74 380.325H1030.08V846.689H1030.74V380.325Z" fill="url(#paint48_linear_157_26)"/>
<path d="M1016.41 390.813H1015.75V836.186H1016.41V390.813Z" fill="url(#paint49_linear_157_26)"/>
<path d="M1003.32 400.407H1002.66V826.593H1003.32V400.407Z" fill="url(#paint50_linear_157_26)"/>
</g>
<g style="mix-blend-mode:screen">
<path d="M1551 1227H-112L-110.387 1225.82L447.957 817.184L991.099 817.228L1551 1227ZM-108.526 1225.78H1547.53L990.921 818.408H448.084L-108.526 1225.78Z" fill="url(#paint51_linear_157_26)"/>
<path d="M1008.67 830.128H430.334V831.353H1008.67V830.128Z" fill="url(#paint52_linear_157_26)"/>
<path d="M1028.82 844.878H410.183V846.103H1028.82V844.878Z" fill="url(#paint53_linear_157_26)"/>
<path d="M1051.99 861.842H387.012V863.067H1051.99V861.842Z" fill="url(#paint54_linear_157_26)"/>
<path d="M1078.92 881.542H360.084V882.766H1078.92V881.542Z" fill="url(#paint55_linear_157_26)"/>
<path d="M1110.59 904.718H328.415V905.943H1110.59V904.718Z" fill="url(#paint56_linear_157_26)"/>
<path d="M1148.37 932.375H290.625V933.6H1148.37V932.375Z" fill="url(#paint57_linear_157_26)"/>
<path d="M1194.24 965.952H244.751V967.176H1194.24V965.952Z" fill="url(#paint58_linear_157_26)"/>
<path d="M1251.11 1007.57H187.888V1008.79H1251.11V1007.57Z" fill="url(#paint59_linear_157_26)"/>
<path d="M1323.45 1060.51H115.553V1061.74H1323.45V1060.51Z" fill="url(#paint60_linear_157_26)"/>
<path d="M1418.57 1130.13H20.4282V1131.35H1418.57V1130.13Z" fill="url(#paint61_linear_157_26)"/>
<path d="M-6.40848 1226.95L-6.67725 1225.83L481.822 817.242L482.091 818.357L-6.40848 1226.95Z" fill="url(#paint62_linear_157_26)"/>
<path d="M97.3323 1226.93L97.0229 1225.85L515.738 817.257L516.043 818.342L97.3323 1226.93Z" fill="url(#paint63_linear_157_26)"/>
<path d="M201.073 1226.91L200.723 1225.87L549.649 817.279L549.999 818.313L201.073 1226.91Z" fill="url(#paint64_linear_157_26)"/>
<path d="M304.824 1226.87L304.413 1225.91L583.555 817.315L583.966 818.276L304.824 1226.87Z" fill="url(#paint65_linear_157_26)"/>
<path d="M408.575 1226.82L408.098 1225.97L617.456 817.374L617.933 818.218L408.575 1226.82Z" fill="url(#paint66_linear_157_26)"/>
<path d="M512.335 1226.72L511.783 1226.06L651.351 817.47L651.909 818.13L512.335 1226.72Z" fill="url(#paint67_linear_157_26)"/>
<path d="M616.091 1226.57L615.462 1226.21L685.252 817.609L685.88 817.983L616.091 1226.57Z" fill="url(#paint68_linear_157_26)"/>
<path d="M719.831 817.799H719.172V1226.39H719.831V817.799Z" fill="url(#paint69_linear_157_26)"/>
<path d="M822.904 1226.57L753.12 817.983L753.749 817.609L823.533 1226.21L822.904 1226.57Z" fill="url(#paint70_linear_157_26)"/>
<path d="M926.664 1226.72L787.091 818.13L787.649 817.47L927.217 1226.06L926.664 1226.72Z" fill="url(#paint71_linear_157_26)"/>
<path d="M1030.43 1226.82L821.067 818.218L821.544 817.374L1030.9 1225.97L1030.43 1226.82Z" fill="url(#paint72_linear_157_26)"/>
<path d="M1134.17 1226.87L855.033 818.276L855.444 817.316L1134.59 1225.91L1134.17 1226.87Z" fill="url(#paint73_linear_157_26)"/>
<path d="M1237.93 1226.91L889.001 818.313L889.351 817.279L1238.28 1225.87L1237.93 1226.91Z" fill="url(#paint74_linear_157_26)"/>
<path d="M1341.67 1226.93L922.958 818.342L923.262 817.257L1341.98 1225.85L1341.67 1226.93Z" fill="url(#paint75_linear_157_26)"/>
<path d="M1445.41 1226.95L956.908 818.357L957.177 817.242L1445.68 1225.83L1445.41 1226.95Z" fill="url(#paint76_linear_157_26)"/>
</g>
<g style="mix-blend-mode:screen">
<path d="M-95.2651 1216.41V10.5907L-94.8138 10.9207L448.353 408.782V818.21L448.145 818.364L-95.2651 1216.41ZM-94.611 12.3949V1214.61L447.688 817.382V409.619L-94.611 12.3949Z" fill="url(#paint77_linear_157_26)"/>
<path d="M447.922 446.935L-95.0371 121.529L-94.8393 120.37L448.119 445.769L447.922 446.935Z" fill="url(#paint78_linear_157_26)"/>
<path d="M447.942 484.091L-95.0166 231L-94.8594 229.812L448.099 482.902L447.942 484.091Z" fill="url(#paint79_linear_157_26)"/>
<path d="M447.962 521.246L-94.9966 340.464L-94.8799 339.261L448.079 520.036L447.962 521.246Z" fill="url(#paint80_linear_157_26)"/>
<path d="M447.988 558.394L-94.9712 449.928L-94.9053 448.71L448.059 557.177L447.988 558.394Z" fill="url(#paint81_linear_157_26)"/>
<path d="M448.008 595.542L-94.9507 559.384L-94.9253 558.159L448.033 594.317L448.008 595.542Z" fill="url(#paint82_linear_157_26)"/>
<path d="M-94.9253 668.841L-94.9507 667.616L448.008 631.465L448.033 632.683L-94.9253 668.841Z" fill="url(#paint83_linear_157_26)"/>
<path d="M-94.9053 778.297L-94.9712 777.08L447.988 668.613L448.059 669.823L-94.9053 778.297Z" fill="url(#paint84_linear_157_26)"/>
<path d="M-94.8799 887.746L-94.9966 886.544L447.962 705.761L448.079 706.964L-94.8799 887.746Z" fill="url(#paint85_linear_157_26)"/>
<path d="M-94.8594 997.196L-95.0166 996.008L447.942 742.917L448.099 744.105L-94.8594 997.196Z" fill="url(#paint86_linear_157_26)"/>
<path d="M-94.8388 1106.64L-95.0366 1105.47L447.922 780.072L448.12 781.238L-94.8388 1106.64Z" fill="url(#paint87_linear_157_26)"/>
<path d="M66.2462 129.318H65.5869V1097.69H66.2462V129.318Z" fill="url(#paint88_linear_157_26)"/>
<path d="M125.163 172.473H124.503V1054.53H125.163V172.473Z" fill="url(#paint89_linear_157_26)"/>
<path d="M174.44 208.572H173.78V1018.44H174.44V208.572Z" fill="url(#paint90_linear_157_26)"/>
<path d="M216.261 239.2H215.602V987.8H216.261V239.2Z" fill="url(#paint91_linear_157_26)"/>
<path d="M252.195 265.53H251.536V961.485H252.195V265.53Z" fill="url(#paint92_linear_157_26)"/>
<path d="M283.413 288.39H282.754V938.617H283.413V288.39Z" fill="url(#paint93_linear_157_26)"/>
<path d="M310.777 308.435H310.118V918.565H310.777V308.435Z" fill="url(#paint94_linear_157_26)"/>
<path d="M334.967 326.155H334.308V900.853H334.967V326.155Z" fill="url(#paint95_linear_157_26)"/>
<path d="M356.499 341.923H355.84V885.077H356.499V341.923Z" fill="url(#paint96_linear_157_26)"/>
<path d="M375.79 356.057H375.131V870.951H375.79V356.057Z" fill="url(#paint97_linear_157_26)"/>
<path d="M393.174 368.789H392.515V858.219H393.174V368.789Z" fill="url(#paint98_linear_157_26)"/>
<path d="M408.919 380.326H408.26V846.689H408.919V380.326Z" fill="url(#paint99_linear_157_26)"/>
<path d="M423.245 390.813H422.586V836.186H423.245V390.813Z" fill="url(#paint100_linear_157_26)"/>
<path d="M436.339 400.407H435.68V826.593H436.339V400.407Z" fill="url(#paint101_linear_157_26)"/>
</g>
</g>
</g>
<defs>
<linearGradient id="paint0_linear_157_26" x1="719.497" y1="1.40084" x2="719.497" y2="411.225" gradientUnits="userSpaceOnUse">
<stop offset="0.34" stop-color="#787878"/>
<stop offset="1"/>
</linearGradient>
<linearGradient id="paint1_linear_157_26" x1="719.497" y1="1.43444" x2="719.497" y2="411.093" gradientUnits="userSpaceOnUse">
<stop offset="0.34" stop-color="#787878"/>
<stop offset="1"/>
</linearGradient>
<linearGradient id="paint2_linear_157_26" x1="719.498" y1="1.40488" x2="719.498" y2="411.093" gradientUnits="userSpaceOnUse">
<stop offset="0.34" stop-color="#787878"/>
<stop offset="1"/>
</linearGradient>
<linearGradient id="paint3_linear_157_26" x1="719.498" y1="1.27353" x2="719.498" y2="411.108" gradientUnits="userSpaceOnUse">
<stop offset="0.34" stop-color="#787878"/>
<stop offset="1"/>
</linearGradient>
<linearGradient id="paint4_linear_157_26" x1="719.502" y1="1.42618" x2="719.502" y2="411.085" gradientUnits="userSpaceOnUse">
<stop offset="0.34" stop-color="#787878"/>
<stop offset="1"/>
</linearGradient>
<linearGradient id="paint5_linear_157_26" x1="719.503" y1="1.39825" x2="719.503" y2="411.093" gradientUnits="userSpaceOnUse">
<stop offset="0.34" stop-color="#787878"/>
<stop offset="1"/>
</linearGradient>
<linearGradient id="paint6_linear_157_26" x1="719.502" y1="1.42586" x2="719.502" y2="411.084" gradientUnits="userSpaceOnUse">
<stop offset="0.34" stop-color="#787878"/>
<stop offset="1"/>
</linearGradient>
<linearGradient id="paint7_linear_157_26" x1="719.498" y1="1.39875" x2="719.498" y2="411.094" gradientUnits="userSpaceOnUse">
<stop offset="0.34" stop-color="#787878"/>
<stop offset="1"/>
</linearGradient>
<linearGradient id="paint8_linear_157_26" x1="719.497" y1="1.39876" x2="719.497" y2="411.094" gradientUnits="userSpaceOnUse">
<stop offset="0.34" stop-color="#787878"/>
<stop offset="1"/>
</linearGradient>
<linearGradient id="paint9_linear_157_26" x1="719.502" y1="1.41568" x2="719.502" y2="411.078" gradientUnits="userSpaceOnUse">
<stop offset="0.34" stop-color="#787878"/>
<stop offset="1"/>
</linearGradient>
<linearGradient id="paint10_linear_157_26" x1="719.502" y1="1.40095" x2="719.502" y2="411.092" gradientUnits="userSpaceOnUse">
<stop offset="0.34" stop-color="#787878"/>
<stop offset="1"/>
</linearGradient>
<linearGradient id="paint11_linear_157_26" x1="1201.29" y1="1.40087" x2="1201.29" y2="411.115" gradientUnits="userSpaceOnUse">
<stop offset="0.34" stop-color="#787878"/>
<stop offset="1"/>
</linearGradient>
<linearGradient id="paint12_linear_157_26" x1="1132.47" y1="1.40085" x2="1132.47" y2="411.078" gradientUnits="userSpaceOnUse">
<stop offset="0.34" stop-color="#787878"/>
<stop offset="1"/>
</linearGradient>
<linearGradient id="paint13_linear_157_26" x1="1063.64" y1="1.40084" x2="1063.64" y2="411.034" gradientUnits="userSpaceOnUse">
<stop offset="0.34" stop-color="#787878"/>
<stop offset="1"/>
</linearGradient>
<linearGradient id="paint14_linear_157_26" x1="994.809" y1="1.40091" x2="994.809" y2="410.961" gradientUnits="userSpaceOnUse">
<stop offset="0.34" stop-color="#787878"/>
<stop offset="1"/>
</linearGradient>
<linearGradient id="paint15_linear_157_26" x1="925.985" y1="1.40083" x2="925.985" y2="410.843" gradientUnits="userSpaceOnUse">
<stop offset="0.34" stop-color="#787878"/>
<stop offset="1"/>
</linearGradient>
<linearGradient id="paint16_linear_157_26" x1="857.154" y1="1.401" x2="857.154" y2="411.093" gradientUnits="userSpaceOnUse">
<stop offset="0.34" stop-color="#787878"/>
<stop offset="1"/>
</linearGradient>
<linearGradient id="paint17_linear_157_26" x1="788.329" y1="1.40105" x2="788.329" y2="411.093" gradientUnits="userSpaceOnUse">
<stop offset="0.34" stop-color="#787878"/>
<stop offset="1"/>
</linearGradient>
<linearGradient id="paint18_linear_157_26" x1="719.496" y1="1.40074" x2="719.496" y2="411.093" gradientUnits="userSpaceOnUse">
<stop offset="0.34" stop-color="#787878"/>
<stop offset="1"/>
</linearGradient>
<linearGradient id="paint19_linear_157_26" x1="650.671" y1="1.40106" x2="650.671" y2="411.093" gradientUnits="userSpaceOnUse">
<stop offset="0.34" stop-color="#787878"/>
<stop offset="1"/>
</linearGradient>
<linearGradient id="paint20_linear_157_26" x1="581.846" y1="1.40089" x2="581.846" y2="411.093" gradientUnits="userSpaceOnUse">
<stop offset="0.34" stop-color="#787878"/>
<stop offset="1"/>
</linearGradient>
<linearGradient id="paint21_linear_157_26" x1="513.015" y1="1.40094" x2="513.015" y2="410.843" gradientUnits="userSpaceOnUse">
<stop offset="0.34" stop-color="#787878"/>
<stop offset="1"/>
</linearGradient>
<linearGradient id="paint22_linear_157_26" x1="444.189" y1="1.40084" x2="444.189" y2="410.961" gradientUnits="userSpaceOnUse">
<stop offset="0.34" stop-color="#787878"/>
<stop offset="1"/>
</linearGradient>
<linearGradient id="paint23_linear_157_26" x1="375.364" y1="1.40086" x2="375.364" y2="411.034" gradientUnits="userSpaceOnUse">
<stop offset="0.34" stop-color="#787878"/>
<stop offset="1"/>
</linearGradient>
<linearGradient id="paint24_linear_157_26" x1="306.533" y1="1.40085" x2="306.533" y2="411.078" gradientUnits="userSpaceOnUse">
<stop offset="0.34" stop-color="#787878"/>
<stop offset="1"/>
</linearGradient>
<linearGradient id="paint25_linear_157_26" x1="237.707" y1="1.40084" x2="237.707" y2="411.115" gradientUnits="userSpaceOnUse">
<stop offset="0.34" stop-color="#787878"/>
<stop offset="1"/>
</linearGradient>
<linearGradient id="paint26_linear_157_26" x1="1439.2" y1="613.504" x2="998.427" y2="613.504" gradientUnits="userSpaceOnUse">
<stop offset="0.34" stop-color="#787878"/>
<stop offset="1"/>
</linearGradient>
<linearGradient id="paint27_linear_157_26" x1="1439.2" y1="943.355" x2="998.427" y2="943.355" gradientUnits="userSpaceOnUse">
<stop offset="0.34" stop-color="#787878"/>
<stop offset="1"/>
</linearGradient>
<linearGradient id="paint28_linear_157_26" x1="1439.2" y1="870.056" x2="998.427" y2="870.056" gradientUnits="userSpaceOnUse">
<stop offset="0.34" stop-color="#787878"/>
<stop offset="1"/>
</linearGradient>
<linearGradient id="paint29_linear_157_26" x1="1439.2" y1="796.75" x2="998.427" y2="796.75" gradientUnits="userSpaceOnUse">
<stop offset="0.34" stop-color="#787878"/>
<stop offset="1"/>
</linearGradient>
<linearGradient id="paint30_linear_157_26" x1="1439.2" y1="723.452" x2="998.427" y2="723.452" gradientUnits="userSpaceOnUse">
<stop offset="0.34" stop-color="#787878"/>
<stop offset="1"/>
</linearGradient>
<linearGradient id="paint31_linear_157_26" x1="1439.2" y1="650.153" x2="998.427" y2="650.153" gradientUnits="userSpaceOnUse">
<stop offset="0.34" stop-color="#787878"/>
<stop offset="1"/>
</linearGradient>
<linearGradient id="paint32_linear_157_26" x1="1439.2" y1="576.854" x2="998.427" y2="576.854" gradientUnits="userSpaceOnUse">
<stop offset="0.34" stop-color="#787878"/>
<stop offset="1"/>
</linearGradient>
<linearGradient id="paint33_linear_157_26" x1="1439.2" y1="503.548" x2="998.427" y2="503.548" gradientUnits="userSpaceOnUse">
<stop offset="0.34" stop-color="#787878"/>
<stop offset="1"/>
</linearGradient>
<linearGradient id="paint34_linear_157_26" x1="1439.2" y1="430.25" x2="998.427" y2="430.25" gradientUnits="userSpaceOnUse">
<stop offset="0.34" stop-color="#787878"/>
<stop offset="1"/>
</linearGradient>
<linearGradient id="paint35_linear_157_26" x1="1439.2" y1="356.951" x2="998.427" y2="356.951" gradientUnits="userSpaceOnUse">
<stop offset="0.34" stop-color="#787878"/>
<stop offset="1"/>
</linearGradient>
<linearGradient id="paint36_linear_157_26" x1="1439.2" y1="283.653" x2="998.427" y2="283.653" gradientUnits="userSpaceOnUse">
<stop offset="0.34" stop-color="#787878"/>
<stop offset="1"/>
</linearGradient>
<linearGradient id="paint37_linear_157_26" x1="1439.2" y1="613.504" x2="998.462" y2="613.504" gradientUnits="userSpaceOnUse">
<stop offset="0.34" stop-color="#787878"/>
<stop offset="1"/>
</linearGradient>
<linearGradient id="paint38_linear_157_26" x1="1439.21" y1="613.503" x2="998.4" y2="613.503" gradientUnits="userSpaceOnUse">
<stop offset="0.34" stop-color="#787878"/>
<stop offset="1"/>
</linearGradient>
<linearGradient id="paint39_linear_157_26" x1="1439.22" y1="613.503" x2="998.402" y2="613.503" gradientUnits="userSpaceOnUse">
<stop offset="0.34" stop-color="#787878"/>
<stop offset="1"/>
</linearGradient>
<linearGradient id="paint40_linear_157_26" x1="1439.22" y1="613.504" x2="998.408" y2="613.504" gradientUnits="userSpaceOnUse">
<stop offset="0.34" stop-color="#787878"/>
<stop offset="1"/>
</linearGradient>
<linearGradient id="paint41_linear_157_26" x1="1439.22" y1="613.504" x2="998.409" y2="613.504" gradientUnits="userSpaceOnUse">
<stop offset="0.34" stop-color="#787878"/>
<stop offset="1"/>
</linearGradient>
<linearGradient id="paint42_linear_157_26" x1="1439.19" y1="613.504" x2="998.43" y2="613.504" gradientUnits="userSpaceOnUse">
<stop offset="0.34" stop-color="#787878"/>
<stop offset="1"/>
</linearGradient>
<linearGradient id="paint43_linear_157_26" x1="1439.25" y1="613.504" x2="998.406" y2="613.504" gradientUnits="userSpaceOnUse">
<stop offset="0.34" stop-color="#787878"/>
<stop offset="1"/>
</linearGradient>
<linearGradient id="paint44_linear_157_26" x1="1439.25" y1="613.504" x2="998.407" y2="613.504" gradientUnits="userSpaceOnUse">
<stop offset="0.34" stop-color="#787878"/>
<stop offset="1"/>
</linearGradient>
<linearGradient id="paint45_linear_157_26" x1="1439.26" y1="613.504" x2="998.413" y2="613.504" gradientUnits="userSpaceOnUse">
<stop offset="0.34" stop-color="#787878"/>
<stop offset="1"/>
</linearGradient>
<linearGradient id="paint46_linear_157_26" x1="1439.24" y1="613.504" x2="998.42" y2="613.504" gradientUnits="userSpaceOnUse">
<stop offset="0.34" stop-color="#787878"/>
<stop offset="1"/>
</linearGradient>
<linearGradient id="paint47_linear_157_26" x1="1439.24" y1="613.504" x2="998.42" y2="613.504" gradientUnits="userSpaceOnUse">
<stop offset="0.34" stop-color="#787878"/>
<stop offset="1"/>
</linearGradient>
<linearGradient id="paint48_linear_157_26" x1="1439" y1="613.503" x2="998.441" y2="613.503" gradientUnits="userSpaceOnUse">
<stop offset="0.34" stop-color="#787878"/>
<stop offset="1"/>
</linearGradient>
<linearGradient id="paint49_linear_157_26" x1="1439.19" y1="613.503" x2="998.424" y2="613.503" gradientUnits="userSpaceOnUse">
<stop offset="0.34" stop-color="#787878"/>
<stop offset="1"/>
</linearGradient>
<linearGradient id="paint50_linear_157_26" x1="1439.27" y1="613.504" x2="998.427" y2="613.504" gradientUnits="userSpaceOnUse">
<stop offset="0.34" stop-color="#787878"/>
<stop offset="1"/>
</linearGradient>
<linearGradient id="paint51_linear_157_26" x1="-112" y1="1199.28" x2="-110.939" y2="819.224" gradientUnits="userSpaceOnUse">
<stop offset="0.34" stop-color="#787878"/>
<stop offset="1"/>
</linearGradient>
<linearGradient id="paint52_linear_157_26" x1="719.497" y1="1199.29" x2="719.497" y2="819.222" gradientUnits="userSpaceOnUse">
<stop offset="0.34" stop-color="#787878"/>
<stop offset="1"/>
</linearGradient>
<linearGradient id="paint53_linear_157_26" x1="719.498" y1="1199.29" x2="719.498" y2="819.222" gradientUnits="userSpaceOnUse">
<stop offset="0.34" stop-color="#787878"/>
<stop offset="1"/>
</linearGradient>
<linearGradient id="paint54_linear_157_26" x1="719.498" y1="1199.29" x2="719.498" y2="819.221" gradientUnits="userSpaceOnUse">
<stop offset="0.34" stop-color="#787878"/>
<stop offset="1"/>
</linearGradient>
<linearGradient id="paint55_linear_157_26" x1="719.502" y1="1199.29" x2="719.502" y2="819.221" gradientUnits="userSpaceOnUse">
<stop offset="0.34" stop-color="#787878"/>
<stop offset="1"/>
</linearGradient>
<linearGradient id="paint56_linear_157_26" x1="719.503" y1="1199.26" x2="719.503" y2="819.234" gradientUnits="userSpaceOnUse">
<stop offset="0.34" stop-color="#787878"/>
<stop offset="1"/>
</linearGradient>
<linearGradient id="paint57_linear_157_26" x1="719.497" y1="1199.29" x2="719.497" y2="819.219" gradientUnits="userSpaceOnUse">
<stop offset="0.34" stop-color="#787878"/>
<stop offset="1"/>
</linearGradient>
<linearGradient id="paint58_linear_157_26" x1="719.498" y1="1199.26" x2="719.498" y2="819.244" gradientUnits="userSpaceOnUse">
<stop offset="0.34" stop-color="#787878"/>
<stop offset="1"/>
</linearGradient>
<linearGradient id="paint59_linear_157_26" x1="719.497" y1="1199.27" x2="719.497" y2="819.231" gradientUnits="userSpaceOnUse">
<stop offset="0.34" stop-color="#787878"/>
<stop offset="1"/>
</linearGradient>
<linearGradient id="paint60_linear_157_26" x1="719.502" y1="1199.29" x2="719.502" y2="819.216" gradientUnits="userSpaceOnUse">
<stop offset="0.34" stop-color="#787878"/>
<stop offset="1"/>
</linearGradient>
<linearGradient id="paint61_linear_157_26" x1="719.502" y1="1199.29" x2="719.502" y2="819.214" gradientUnits="userSpaceOnUse">
<stop offset="0.34" stop-color="#787878"/>
<stop offset="1"/>
</linearGradient>
<linearGradient id="paint62_linear_157_26" x1="237.707" y1="1199.28" x2="237.707" y2="819.222" gradientUnits="userSpaceOnUse">
<stop offset="0.34" stop-color="#787878"/>
<stop offset="1"/>
</linearGradient>
<linearGradient id="paint63_linear_157_26" x1="306.533" y1="1199.28" x2="306.533" y2="819.23" gradientUnits="userSpaceOnUse">
<stop offset="0.34" stop-color="#787878"/>
<stop offset="1"/>
</linearGradient>
<linearGradient id="paint64_linear_157_26" x1="375.364" y1="1199.28" x2="375.364" y2="819.222" gradientUnits="userSpaceOnUse">
<stop offset="0.34" stop-color="#787878"/>
<stop offset="1"/>
</linearGradient>
<linearGradient id="paint65_linear_157_26" x1="444.189" y1="1199.28" x2="444.189" y2="819.222" gradientUnits="userSpaceOnUse">
<stop offset="0.34" stop-color="#787878"/>
<stop offset="1"/>
</linearGradient>
<linearGradient id="paint66_linear_157_26" x1="513.015" y1="1199.28" x2="513.015" y2="819.23" gradientUnits="userSpaceOnUse">
<stop offset="0.34" stop-color="#787878"/>
<stop offset="1"/>
</linearGradient>
<linearGradient id="paint67_linear_157_26" x1="581.846" y1="1199.28" x2="581.846" y2="819.222" gradientUnits="userSpaceOnUse">
<stop offset="0.34" stop-color="#787878"/>
<stop offset="1"/>
</linearGradient>
<linearGradient id="paint68_linear_157_26" x1="650.671" y1="1199.28" x2="650.671" y2="819.222" gradientUnits="userSpaceOnUse">
<stop offset="0.34" stop-color="#787878"/>
<stop offset="1"/>
</linearGradient>
<linearGradient id="paint69_linear_157_26" x1="-111.954" y1="1199.28" x2="-110.893" y2="819.224" gradientUnits="userSpaceOnUse">
<stop offset="0.34" stop-color="#787878"/>
<stop offset="1"/>
</linearGradient>
<linearGradient id="paint70_linear_157_26" x1="788.329" y1="1199.28" x2="788.329" y2="819.222" gradientUnits="userSpaceOnUse">
<stop offset="0.34" stop-color="#787878"/>
<stop offset="1"/>
</linearGradient>
<linearGradient id="paint71_linear_157_26" x1="857.154" y1="1199.28" x2="857.154" y2="819.223" gradientUnits="userSpaceOnUse">
<stop offset="0.34" stop-color="#787878"/>
<stop offset="1"/>
</linearGradient>
<linearGradient id="paint72_linear_157_26" x1="925.985" y1="1199.28" x2="925.985" y2="819.23" gradientUnits="userSpaceOnUse">
<stop offset="0.34" stop-color="#787878"/>
<stop offset="1"/>
</linearGradient>
<linearGradient id="paint73_linear_157_26" x1="994.81" y1="1199.28" x2="994.81" y2="819.222" gradientUnits="userSpaceOnUse">
<stop offset="0.34" stop-color="#787878"/>
<stop offset="1"/>
</linearGradient>
<linearGradient id="paint74_linear_157_26" x1="1063.64" y1="1199.28" x2="1063.64" y2="819.222" gradientUnits="userSpaceOnUse">
<stop offset="0.34" stop-color="#787878"/>
<stop offset="1"/>
</linearGradient>
<linearGradient id="paint75_linear_157_26" x1="1132.47" y1="1199.28" x2="1132.47" y2="819.23" gradientUnits="userSpaceOnUse">
<stop offset="0.34" stop-color="#787878"/>
<stop offset="1"/>
</linearGradient>
<linearGradient id="paint76_linear_157_26" x1="1201.29" y1="1199.28" x2="1201.29" y2="819.222" gradientUnits="userSpaceOnUse">
<stop offset="0.34" stop-color="#787878"/>
<stop offset="1"/>
</linearGradient>
<linearGradient id="paint77_linear_157_26" x1="8.58202" y1="613.504" x2="438.814" y2="613.504" gradientUnits="userSpaceOnUse">
<stop offset="0.34" stop-color="#787878"/>
<stop offset="1"/>
</linearGradient>
<linearGradient id="paint78_linear_157_26" x1="8.58187" y1="283.653" x2="438.814" y2="283.653" gradientUnits="userSpaceOnUse">
<stop offset="0.34" stop-color="#787878"/>
<stop offset="1"/>
</linearGradient>
<linearGradient id="paint79_linear_157_26" x1="8.58208" y1="356.951" x2="438.814" y2="356.951" gradientUnits="userSpaceOnUse">
<stop offset="0.34" stop-color="#787878"/>
<stop offset="1"/>
</linearGradient>
<linearGradient id="paint80_linear_157_26" x1="8.5818" y1="430.25" x2="438.814" y2="430.25" gradientUnits="userSpaceOnUse">
<stop offset="0.34" stop-color="#787878"/>
<stop offset="1"/>
</linearGradient>
<linearGradient id="paint81_linear_157_26" x1="8.58185" y1="503.548" x2="438.814" y2="503.548" gradientUnits="userSpaceOnUse">
<stop offset="0.34" stop-color="#787878"/>
<stop offset="1"/>
</linearGradient>
<linearGradient id="paint82_linear_157_26" x1="8.58205" y1="576.854" x2="438.814" y2="576.854" gradientUnits="userSpaceOnUse">
<stop offset="0.34" stop-color="#787878"/>
<stop offset="1"/>
</linearGradient>
<linearGradient id="paint83_linear_157_26" x1="8.58205" y1="650.153" x2="438.814" y2="650.153" gradientUnits="userSpaceOnUse">
<stop offset="0.34" stop-color="#787878"/>
<stop offset="1"/>
</linearGradient>
<linearGradient id="paint84_linear_157_26" x1="8.58185" y1="723.452" x2="438.814" y2="723.452" gradientUnits="userSpaceOnUse">
<stop offset="0.34" stop-color="#787878"/>
<stop offset="1"/>
</linearGradient>
<linearGradient id="paint85_linear_157_26" x1="8.5818" y1="796.75" x2="438.814" y2="796.75" gradientUnits="userSpaceOnUse">
<stop offset="0.34" stop-color="#787878"/>
<stop offset="1"/>
</linearGradient>
<linearGradient id="paint86_linear_157_26" x1="8.58208" y1="870.056" x2="438.814" y2="870.056" gradientUnits="userSpaceOnUse">
<stop offset="0.34" stop-color="#787878"/>
<stop offset="1"/>
</linearGradient>
<linearGradient id="paint87_linear_157_26" x1="8.58236" y1="943.355" x2="438.814" y2="943.355" gradientUnits="userSpaceOnUse">
<stop offset="0.34" stop-color="#787878"/>
<stop offset="1"/>
</linearGradient>
<linearGradient id="paint88_linear_157_26" x1="8.57749" y1="613.504" x2="438.856" y2="613.504" gradientUnits="userSpaceOnUse">
<stop offset="0.34" stop-color="#787878"/>
<stop offset="1"/>
</linearGradient>
<linearGradient id="paint89_linear_157_26" x1="8.56499" y1="613.504" x2="438.854" y2="613.504" gradientUnits="userSpaceOnUse">
<stop offset="0.34" stop-color="#787878"/>
<stop offset="1"/>
</linearGradient>
<linearGradient id="paint90_linear_157_26" x1="8.55574" y1="613.504" x2="438.855" y2="613.504" gradientUnits="userSpaceOnUse">
<stop offset="0.34" stop-color="#787878"/>
<stop offset="1"/>
</linearGradient>
<linearGradient id="paint91_linear_157_26" x1="8.55876" y1="613.504" x2="438.837" y2="613.504" gradientUnits="userSpaceOnUse">
<stop offset="0.34" stop-color="#787878"/>
<stop offset="1"/>
</linearGradient>
<linearGradient id="paint92_linear_157_26" x1="8.66543" y1="613.504" x2="438.746" y2="613.504" gradientUnits="userSpaceOnUse">
<stop offset="0.34" stop-color="#787878"/>
<stop offset="1"/>
</linearGradient>
<linearGradient id="paint93_linear_157_26" x1="8.57417" y1="613.504" x2="438.817" y2="613.504" gradientUnits="userSpaceOnUse">
<stop offset="0.34" stop-color="#787878"/>
<stop offset="1"/>
</linearGradient>
<linearGradient id="paint94_linear_157_26" x1="8.56965" y1="613.504" x2="438.818" y2="613.504" gradientUnits="userSpaceOnUse">
<stop offset="0.34" stop-color="#787878"/>
<stop offset="1"/>
</linearGradient>
<linearGradient id="paint95_linear_157_26" x1="8.56484" y1="613.504" x2="438.818" y2="613.504" gradientUnits="userSpaceOnUse">
<stop offset="0.34" stop-color="#787878"/>
<stop offset="1"/>
</linearGradient>
<linearGradient id="paint96_linear_157_26" x1="8.5702" y1="613.504" x2="438.818" y2="613.504" gradientUnits="userSpaceOnUse">
<stop offset="0.34" stop-color="#787878"/>
<stop offset="1"/>
</linearGradient>
<linearGradient id="paint97_linear_157_26" x1="8.57072" y1="613.504" x2="438.814" y2="613.504" gradientUnits="userSpaceOnUse">
<stop offset="0.34" stop-color="#787878"/>
<stop offset="1"/>
</linearGradient>
<linearGradient id="paint98_linear_157_26" x1="8.5403" y1="613.504" x2="438.819" y2="613.504" gradientUnits="userSpaceOnUse">
<stop offset="0.34" stop-color="#787878"/>
<stop offset="1"/>
</linearGradient>
<linearGradient id="paint99_linear_157_26" x1="8.55385" y1="613.504" x2="438.817" y2="613.504" gradientUnits="userSpaceOnUse">
<stop offset="0.34" stop-color="#787878"/>
<stop offset="1"/>
</linearGradient>
<linearGradient id="paint100_linear_157_26" x1="8.74195" y1="613.503" x2="438.808" y2="613.503" gradientUnits="userSpaceOnUse">
<stop offset="0.34" stop-color="#787878"/>
<stop offset="1"/>
</linearGradient>
<linearGradient id="paint101_linear_157_26" x1="8.54538" y1="613.504" x2="438.814" y2="613.504" gradientUnits="userSpaceOnUse">
<stop offset="0.34" stop-color="#787878"/>
<stop offset="1"/>
</linearGradient>
</defs>
</svg>
